<svg width="21" height="25" viewBox="0 0 21 25" fill="none" xmlns="http://www.w3.org/2000/svg">
<path d="M2.375 14.5C2.375 15.8125 2.67188 17.0469 3.26562 18.2031C3.85938 19.3594 4.6875 20.3229 5.75 21.0938C5.66669 20.8438 5.60419 20.5886 5.5625 20.3281C5.52081 20.0677 5.5 19.8125 5.5 19.5625C5.5 18.8958 5.625 18.2708 5.875 17.6875C6.125 17.1042 6.48956 16.5729 6.96875 16.0938L10.5 12.625L14.0312 16.0938C14.5104 16.5729 14.875 17.1042 15.125 17.6875C15.375 18.2708 15.5 18.8958 15.5 19.5625C15.5 19.8125 15.4792 20.0677 15.4375 20.3281C15.3958 20.5886 15.3333 20.8438 15.25 21.0938C16.3125 20.3229 17.1406 19.3594 17.7344 18.2031C18.3281 17.0469 18.625 15.8125 18.625 14.5C18.625 13.375 18.3854 12.2761 17.9062 11.2031C17.4271 10.1302 16.7396 9.14581 15.8438 8.25C15.4062 8.5625 14.9479 8.80731 14.4688 8.98438C13.9896 9.16144 13.5104 9.25 13.0312 9.25C11.7604 9.25 10.7083 8.81769 9.875 7.95312C9.04169 7.08856 8.625 6 8.625 4.6875V4.0625C7.66669 4.75 6.80206 5.51044 6.03125 6.34375C5.26044 7.17706 4.60419 8.04688 4.0625 8.95312C3.52081 9.85938 3.10419 10.7864 2.8125 11.7344C2.52081 12.6823 2.375 13.6042 2.375 14.5ZM10.5 15.25L8.28125 17.4375C7.98956 17.7292 7.76562 18.0521 7.60938 18.4062C7.45312 18.7604 7.375 19.1458 7.375 19.5625C7.375 20.4167 7.67706 21.1406 8.28125 21.7344C8.88544 22.3281 9.625 22.625 10.5 22.625C11.375 22.625 12.1146 22.3281 12.7188 21.7344C13.3229 21.1406 13.625 20.4167 13.625 19.5625C13.625 19.1458 13.5469 18.7604 13.3906 18.4062C13.2344 18.0521 13.0104 17.7292 12.7188 17.4375L10.5 15.25ZM10.5 0.75V4.875C10.5 5.58331 10.7448 6.17706 11.2344 6.65625C11.7239 7.13544 12.3229 7.375 13.0312 7.375C13.4062 7.375 13.7552 7.29688 14.0781 7.14062C14.4011 6.98438 14.6875 6.75 14.9375 6.4375L15.5 5.75C17.0417 6.625 18.2604 7.84375 19.1562 9.40625C20.0521 10.9688 20.5 12.6667 20.5 14.5C20.5 17.2917 19.5312 19.6562 17.5938 21.5938C15.6562 23.5312 13.2917 24.5 10.5 24.5C7.70831 24.5 5.34375 23.5312 3.40625 21.5938C1.46875 19.6562 0.5 17.2917 0.5 14.5C0.5 11.8333 1.39583 9.26562 3.1875 6.79688C4.97919 4.32812 7.41669 2.3125 10.5 0.75Z" fill="#3C1E16"/>
</svg>
